<svg width="166" height="59" viewBox="0 0 166 59" fill="none" xmlns="http://www.w3.org/2000/svg">
<path d="M31 1.06512L46 1.04214L46.0352 24.0421L31.0352 24.0651L31 1.06512Z" fill="#333027"/>
<path d="M42.0176 12.5483C42.0273 18.8995 36.8865 24.0561 30.5352 24.0659C24.184 24.0756 19.0274 18.9348 19.0176 12.5835C19.0079 6.23223 24.1487 1.07562 30.5 1.06589C36.8513 1.05616 42.0079 6.19699 42.0176 12.5483Z" fill="#333027"/>
<path d="M31 1.06512L46 1.04214L46.0352 24.0421L31.0352 24.0651L31 1.06512Z" stroke="#333027" stroke-width="2"/>
<path d="M42.0176 12.5483C42.0273 18.8995 36.8865 24.0561 30.5352 24.0659C24.184 24.0756 19.0274 18.9348 19.0176 12.5835C19.0079 6.23223 24.1487 1.07562 30.5 1.06589C36.8513 1.05616 42.0079 6.19699 42.0176 12.5483Z" stroke="#333027" stroke-width="2"/>
<path d="M46.5344 23.5416L46.5007 1.54162L61.5007 1.51863C68.7485 1.4134 73.5061 5 73.5176 12.5002C73.529 20.0005 68.9201 23.5682 61.5344 23.5186L46.5344 23.5416Z" stroke="#333027" stroke-width="2"/>
<path d="M18.2333 30.384C18.2333 31.5146 17.9666 32.5813 17.4333 33.584C16.8999 34.5866 16.0466 35.408 14.8733 36.048C13.6999 36.6666 12.1959 36.976 10.3613 36.976H6.32925V46H2.68125V23.76H10.3613C12.0679 23.76 13.5079 24.0586 14.6813 24.656C15.8759 25.232 16.7613 26.0213 17.3373 27.024C17.9346 28.0266 18.2333 29.1466 18.2333 30.384ZM10.3613 34C11.7479 34 12.7826 33.6906 13.4653 33.072C14.1479 32.432 14.4893 31.536 14.4893 30.384C14.4893 27.952 13.1133 26.736 10.3613 26.736H6.32925V34H10.3613ZM20.4965 37.104C20.4965 35.3333 20.8592 33.7653 21.5845 32.4C22.3312 31.0346 23.3338 29.9786 24.5925 29.232C25.8725 28.464 27.2805 28.08 28.8165 28.08C30.2032 28.08 31.4085 28.3573 32.4325 28.912C33.4778 29.4453 34.3098 30.1173 34.9285 30.928V28.368H38.6085V46H34.9285V43.376C34.3098 44.208 33.4672 44.9013 32.4005 45.456C31.3338 46.0106 30.1178 46.288 28.7525 46.288C27.2378 46.288 25.8512 45.904 24.5925 45.136C23.3338 44.3466 22.3312 43.2586 21.5845 41.872C20.8592 40.464 20.4965 38.8746 20.4965 37.104ZM34.9285 37.168C34.9285 35.952 34.6725 34.896 34.1605 34C33.6698 33.104 33.0192 32.4213 32.2085 31.952C31.3978 31.4826 30.5232 31.248 29.5845 31.248C28.6458 31.248 27.7712 31.4826 26.9605 31.952C26.1498 32.4 25.4885 33.072 24.9765 33.968C24.4858 34.8426 24.2405 35.888 24.2405 37.104C24.2405 38.32 24.4858 39.3866 24.9765 40.304C25.4885 41.2213 26.1498 41.9253 26.9605 42.416C27.7925 42.8853 28.6672 43.12 29.5845 43.12C30.5232 43.12 31.3978 42.8853 32.2085 42.416C33.0192 41.9466 33.6698 41.264 34.1605 40.368C34.6725 39.4506 34.9285 38.384 34.9285 37.168ZM64.744 28.08C66.1307 28.08 67.368 28.368 68.456 28.944C69.5653 29.52 70.4293 30.3733 71.048 31.504C71.688 32.6346 72.008 34 72.008 35.6V46H68.392V36.144C68.392 34.5653 67.9973 33.36 67.208 32.528C66.4187 31.6746 65.3413 31.248 63.976 31.248C62.6107 31.248 61.5227 31.6746 60.712 32.528C59.9227 33.36 59.528 34.5653 59.528 36.144V46H55.912V36.144C55.912 34.5653 55.5173 33.36 54.728 32.528C53.9387 31.6746 52.8613 31.248 51.496 31.248C50.1307 31.248 49.0427 31.6746 48.232 32.528C47.4427 33.36 47.048 34.5653 47.048 36.144V46H43.4V28.368H47.048V30.384C47.6453 29.6586 48.4027 29.0933 49.32 28.688C50.2373 28.2826 51.2187 28.08 52.264 28.08C53.672 28.08 54.9307 28.3786 56.04 28.976C57.1493 29.5733 58.0027 30.4373 58.6 31.568C59.1333 30.5013 59.9653 29.6586 61.096 29.04C62.2267 28.4 63.4427 28.08 64.744 28.08ZM80.298 30.96C80.9167 30.1493 81.7593 29.4666 82.826 28.912C83.8927 28.3573 85.098 28.08 86.442 28.08C87.978 28.08 89.3753 28.464 90.634 29.232C91.914 29.9786 92.9167 31.0346 93.642 32.4C94.3673 33.7653 94.73 35.3333 94.73 37.104C94.73 38.8746 94.3673 40.464 93.642 41.872C92.9167 43.2586 91.914 44.3466 90.634 45.136C89.3753 45.904 87.978 46.288 86.442 46.288C85.098 46.288 83.9033 46.0213 82.858 45.488C81.8127 44.9333 80.9593 44.2506 80.298 43.44V54.384H76.65V28.368H80.298V30.96ZM91.018 37.104C91.018 35.888 90.762 34.8426 90.25 33.968C89.7593 33.072 89.098 32.4 88.266 31.952C87.4553 31.4826 86.5807 31.248 85.642 31.248C84.7247 31.248 83.85 31.4826 83.018 31.952C82.2073 32.4213 81.546 33.104 81.034 34C80.5433 34.896 80.298 35.952 80.298 37.168C80.298 38.384 80.5433 39.4506 81.034 40.368C81.546 41.264 82.2073 41.9466 83.018 42.416C83.85 42.8853 84.7247 43.12 85.642 43.12C86.5807 43.12 87.4553 42.8853 88.266 42.416C89.098 41.9253 89.7593 41.2213 90.25 40.304C90.762 39.3866 91.018 38.32 91.018 37.104ZM105.986 46.288C104.322 46.288 102.818 45.9146 101.474 45.168C100.13 44.4 99.0735 43.3333 98.3055 41.968C97.5375 40.5813 97.1535 38.9813 97.1535 37.168C97.1535 35.376 97.5482 33.7866 98.3375 32.4C99.1268 31.0133 100.204 29.9466 101.57 29.2C102.935 28.4533 104.46 28.08 106.146 28.08C107.831 28.08 109.356 28.4533 110.722 29.2C112.087 29.9466 113.164 31.0133 113.954 32.4C114.743 33.7866 115.138 35.376 115.138 37.168C115.138 38.96 114.732 40.5493 113.922 41.936C113.111 43.3226 112.002 44.4 110.594 45.168C109.207 45.9146 107.671 46.288 105.986 46.288ZM105.986 43.12C106.924 43.12 107.799 42.896 108.61 42.448C109.442 42 110.114 41.328 110.626 40.432C111.138 39.536 111.394 38.448 111.394 37.168C111.394 35.888 111.148 34.8106 110.658 33.936C110.167 33.04 109.516 32.368 108.706 31.92C107.895 31.472 107.02 31.248 106.082 31.248C105.143 31.248 104.268 31.472 103.458 31.92C102.668 32.368 102.039 33.04 101.57 33.936C101.1 34.8106 100.866 35.888 100.866 37.168C100.866 39.0666 101.346 40.5386 102.306 41.584C103.287 42.608 104.514 43.12 105.986 43.12ZM123 31.344V41.104C123 41.7653 123.149 42.2453 123.448 42.544C123.768 42.8213 124.301 42.96 125.048 42.96H127.288V46H124.408C122.765 46 121.506 45.616 120.632 44.848C119.757 44.08 119.32 42.832 119.32 41.104V31.344H117.24V28.368H119.32V23.984H123V28.368H127.288V31.344H123ZM146.81 36.752C146.81 37.4133 146.767 38.0106 146.682 38.544H133.21C133.317 39.952 133.839 41.0826 134.778 41.936C135.717 42.7893 136.869 43.216 138.234 43.216C140.197 43.216 141.583 42.3946 142.394 40.752H146.33C145.797 42.3733 144.826 43.7066 143.418 44.752C142.031 45.776 140.303 46.288 138.234 46.288C136.549 46.288 135.034 45.9146 133.69 45.168C132.367 44.4 131.322 43.3333 130.554 41.968C129.807 40.5813 129.434 38.9813 129.434 37.168C129.434 35.3546 129.797 33.7653 130.522 32.4C131.269 31.0133 132.303 29.9466 133.626 29.2C134.97 28.4533 136.506 28.08 138.234 28.08C139.898 28.08 141.381 28.4426 142.682 29.168C143.983 29.8933 144.997 30.9173 145.722 32.24C146.447 33.5413 146.81 35.0453 146.81 36.752ZM143.002 35.6C142.981 34.256 142.501 33.1786 141.562 32.368C140.623 31.5573 139.461 31.152 138.074 31.152C136.815 31.152 135.738 31.5573 134.842 32.368C133.946 33.1573 133.413 34.2346 133.242 35.6H143.002ZM157.376 37.2L165.504 46H160.576L154.048 38.416V46H150.4V22.32H154.048V36.08L160.448 28.368H165.504L157.376 37.2Z" fill="#333027"/>
</svg>
